<?xml version="1.0" encoding="utf-8" standalone="no"?>
<!DOCTYPE svg PUBLIC "-//W3C//DTD SVG 1.1//EN"
  "http://www.w3.org/Graphics/SVG/1.1/DTD/svg11.dtd">
<svg xmlns:xlink="http://www.w3.org/1999/xlink" width="720pt" height="288pt" viewBox="0 0 720 288" xmlns="http://www.w3.org/2000/svg" version="1.1">
 <metadata>
  <rdf:RDF xmlns:dc="http://purl.org/dc/elements/1.1/" xmlns:cc="http://creativecommons.org/ns#" xmlns:rdf="http://www.w3.org/1999/02/22-rdf-syntax-ns#">
   <cc:Work>
    <dc:type rdf:resource="http://purl.org/dc/dcmitype/StillImage"/>
    <dc:date>2024-11-23T15:14:44.069102</dc:date>
    <dc:format>image/svg+xml</dc:format>
    <dc:creator>
     <cc:Agent>
      <dc:title>Matplotlib v3.9.2, https://matplotlib.org/</dc:title>
     </cc:Agent>
    </dc:creator>
   </cc:Work>
  </rdf:RDF>
 </metadata>
 <defs>
  <style type="text/css">*{stroke-linejoin: round; stroke-linecap: butt}</style>
 </defs>
 <g id="figure_1">
  <g id="patch_1">
   <path d="M 0 288 
L 720 288 
L 720 0 
L 0 0 
z
" style="fill: #ffffff"/>
  </g>
  <g id="axes_1">
   <g id="patch_2">
    <path d="M 90 256.32 
L 648 256.32 
L 648 34.56 
L 90 34.56 
z
" style="fill: #ffffff"/>
   </g>
   <g id="matplotlib.axis_1">
    <g id="xtick_1">
     <g id="line2d_1">
      <defs>
       <path id="m5a23b2d823" d="M 0 0 
L 0 3.5 
" style="stroke: #000000; stroke-width: 0.8"/>
      </defs>
      <g>
       <use xlink:href="#m5a23b2d823" x="115.363636" y="256.32" style="stroke: #000000; stroke-width: 0.8"/>
      </g>
     </g>
     <g id="text_1">
      <!-- 10:00 -->
      <g transform="translate(103.619711 270.204902) rotate(-330) scale(0.1 -0.1)">
       <defs>
        <path id="NotoSansCJKjp-Light-31" d="M 589 0 
L 2995 0 
L 2995 326 
L 2022 326 
L 2022 4666 
L 1722 4666 
C 1498 4538 1210 4435 826 4371 
L 826 4115 
L 1651 4115 
L 1651 326 
L 589 326 
L 589 0 
z
" transform="scale(0.015625)"/>
        <path id="NotoSansCJKjp-Light-30" d="M 1715 -83 
C 2560 -83 3085 710 3085 2349 
C 3085 3968 2560 4749 1715 4749 
C 864 4749 339 3968 339 2349 
C 339 710 864 -83 1715 -83 
z
M 1715 237 
C 1107 237 710 941 710 2349 
C 710 3738 1107 4435 1715 4435 
C 2317 4435 2714 3738 2714 2349 
C 2714 941 2317 237 1715 237 
z
" transform="scale(0.015625)"/>
        <path id="NotoSansCJKjp-Light-3a" d="M 800 2592 
C 973 2592 1126 2720 1126 2938 
C 1126 3155 973 3290 800 3290 
C 627 3290 474 3155 474 2938 
C 474 2720 627 2592 800 2592 
z
M 800 -83 
C 973 -83 1126 51 1126 262 
C 1126 480 973 614 800 614 
C 627 614 474 480 474 262 
C 474 51 627 -83 800 -83 
z
" transform="scale(0.015625)"/>
       </defs>
       <use xlink:href="#NotoSansCJKjp-Light-31"/>
       <use xlink:href="#NotoSansCJKjp-Light-30" x="53.499985"/>
       <use xlink:href="#NotoSansCJKjp-Light-3a" x="106.999969"/>
       <use xlink:href="#NotoSansCJKjp-Light-30" x="131.999954"/>
       <use xlink:href="#NotoSansCJKjp-Light-30" x="185.499939"/>
      </g>
     </g>
    </g>
    <g id="xtick_2">
     <g id="line2d_2">
      <g>
       <use xlink:href="#m5a23b2d823" x="136.677617" y="256.32" style="stroke: #000000; stroke-width: 0.8"/>
      </g>
     </g>
     <g id="text_2">
      <!-- 10:05 -->
      <g transform="translate(124.933691 270.204902) rotate(-330) scale(0.1 -0.1)">
       <defs>
        <path id="NotoSansCJKjp-Light-35" d="M 1619 -83 
C 2355 -83 3085 486 3085 1498 
C 3085 2534 2464 2989 1696 2989 
C 1376 2989 1139 2906 915 2771 
L 1050 4333 
L 2848 4333 
L 2848 4666 
L 717 4666 
L 557 2534 
L 800 2387 
C 1069 2566 1293 2682 1626 2682 
C 2272 2682 2694 2227 2694 1485 
C 2694 730 2195 243 1606 243 
C 998 243 653 512 390 787 
L 179 525 
C 480 230 896 -83 1619 -83 
z
" transform="scale(0.015625)"/>
       </defs>
       <use xlink:href="#NotoSansCJKjp-Light-31"/>
       <use xlink:href="#NotoSansCJKjp-Light-30" x="53.499985"/>
       <use xlink:href="#NotoSansCJKjp-Light-3a" x="106.999969"/>
       <use xlink:href="#NotoSansCJKjp-Light-30" x="131.999954"/>
       <use xlink:href="#NotoSansCJKjp-Light-35" x="185.499939"/>
      </g>
     </g>
    </g>
    <g id="xtick_3">
     <g id="line2d_3">
      <g>
       <use xlink:href="#m5a23b2d823" x="157.991597" y="256.32" style="stroke: #000000; stroke-width: 0.8"/>
      </g>
     </g>
     <g id="text_3">
      <!-- 10:10 -->
      <g transform="translate(146.247671 270.204902) rotate(-330) scale(0.1 -0.1)">
       <use xlink:href="#NotoSansCJKjp-Light-31"/>
       <use xlink:href="#NotoSansCJKjp-Light-30" x="53.499985"/>
       <use xlink:href="#NotoSansCJKjp-Light-3a" x="106.999969"/>
       <use xlink:href="#NotoSansCJKjp-Light-31" x="131.999954"/>
       <use xlink:href="#NotoSansCJKjp-Light-30" x="185.499939"/>
      </g>
     </g>
    </g>
    <g id="xtick_4">
     <g id="line2d_4">
      <g>
       <use xlink:href="#m5a23b2d823" x="179.305577" y="256.32" style="stroke: #000000; stroke-width: 0.8"/>
      </g>
     </g>
     <g id="text_4">
      <!-- 10:15 -->
      <g transform="translate(167.561651 270.204902) rotate(-330) scale(0.1 -0.1)">
       <use xlink:href="#NotoSansCJKjp-Light-31"/>
       <use xlink:href="#NotoSansCJKjp-Light-30" x="53.499985"/>
       <use xlink:href="#NotoSansCJKjp-Light-3a" x="106.999969"/>
       <use xlink:href="#NotoSansCJKjp-Light-31" x="131.999954"/>
       <use xlink:href="#NotoSansCJKjp-Light-35" x="185.499939"/>
      </g>
     </g>
    </g>
    <g id="xtick_5">
     <g id="line2d_5">
      <g>
       <use xlink:href="#m5a23b2d823" x="200.619557" y="256.32" style="stroke: #000000; stroke-width: 0.8"/>
      </g>
     </g>
     <g id="text_5">
      <!-- 10:20 -->
      <g transform="translate(188.875631 270.204902) rotate(-330) scale(0.1 -0.1)">
       <defs>
        <path id="NotoSansCJKjp-Light-32" d="M 288 0 
L 3104 0 
L 3104 333 
L 1645 333 
C 1395 333 1133 314 877 294 
C 2125 1453 2874 2426 2874 3411 
C 2874 4218 2394 4749 1581 4749 
C 1018 4749 621 4461 269 4077 
L 506 3853 
C 774 4192 1139 4429 1542 4429 
C 2202 4429 2496 3974 2496 3405 
C 2496 2554 1869 1587 288 230 
L 288 0 
z
" transform="scale(0.015625)"/>
       </defs>
       <use xlink:href="#NotoSansCJKjp-Light-31"/>
       <use xlink:href="#NotoSansCJKjp-Light-30" x="53.499985"/>
       <use xlink:href="#NotoSansCJKjp-Light-3a" x="106.999969"/>
       <use xlink:href="#NotoSansCJKjp-Light-32" x="131.999954"/>
       <use xlink:href="#NotoSansCJKjp-Light-30" x="185.499939"/>
      </g>
     </g>
    </g>
    <g id="xtick_6">
     <g id="line2d_6">
      <g>
       <use xlink:href="#m5a23b2d823" x="221.933537" y="256.32" style="stroke: #000000; stroke-width: 0.8"/>
      </g>
     </g>
     <g id="text_6">
      <!-- 10:25 -->
      <g transform="translate(210.189612 270.204902) rotate(-330) scale(0.1 -0.1)">
       <use xlink:href="#NotoSansCJKjp-Light-31"/>
       <use xlink:href="#NotoSansCJKjp-Light-30" x="53.499985"/>
       <use xlink:href="#NotoSansCJKjp-Light-3a" x="106.999969"/>
       <use xlink:href="#NotoSansCJKjp-Light-32" x="131.999954"/>
       <use xlink:href="#NotoSansCJKjp-Light-35" x="185.499939"/>
      </g>
     </g>
    </g>
    <g id="xtick_7">
     <g id="line2d_7">
      <g>
       <use xlink:href="#m5a23b2d823" x="243.247517" y="256.32" style="stroke: #000000; stroke-width: 0.8"/>
      </g>
     </g>
     <g id="text_7">
      <!-- 10:30 -->
      <g transform="translate(231.503592 270.204902) rotate(-330) scale(0.1 -0.1)">
       <defs>
        <path id="NotoSansCJKjp-Light-33" d="M 1645 -83 
C 2445 -83 3059 422 3059 1235 
C 3059 1894 2598 2317 2042 2438 
L 2042 2470 
C 2534 2637 2899 3014 2899 3622 
C 2899 4333 2349 4749 1632 4749 
C 1101 4749 704 4506 390 4205 
L 608 3949 
C 858 4224 1222 4429 1626 4429 
C 2163 4429 2502 4096 2502 3603 
C 2502 3040 2150 2598 1126 2598 
L 1126 2278 
C 2240 2278 2675 1862 2675 1235 
C 2675 634 2240 243 1638 243 
C 1043 243 678 518 410 806 
L 205 557 
C 493 243 922 -83 1645 -83 
z
" transform="scale(0.015625)"/>
       </defs>
       <use xlink:href="#NotoSansCJKjp-Light-31"/>
       <use xlink:href="#NotoSansCJKjp-Light-30" x="53.499985"/>
       <use xlink:href="#NotoSansCJKjp-Light-3a" x="106.999969"/>
       <use xlink:href="#NotoSansCJKjp-Light-33" x="131.999954"/>
       <use xlink:href="#NotoSansCJKjp-Light-30" x="185.499939"/>
      </g>
     </g>
    </g>
    <g id="xtick_8">
     <g id="line2d_8">
      <g>
       <use xlink:href="#m5a23b2d823" x="264.561497" y="256.32" style="stroke: #000000; stroke-width: 0.8"/>
      </g>
     </g>
     <g id="text_8">
      <!-- 10:35 -->
      <g transform="translate(252.817572 270.204902) rotate(-330) scale(0.1 -0.1)">
       <use xlink:href="#NotoSansCJKjp-Light-31"/>
       <use xlink:href="#NotoSansCJKjp-Light-30" x="53.499985"/>
       <use xlink:href="#NotoSansCJKjp-Light-3a" x="106.999969"/>
       <use xlink:href="#NotoSansCJKjp-Light-33" x="131.999954"/>
       <use xlink:href="#NotoSansCJKjp-Light-35" x="185.499939"/>
      </g>
     </g>
    </g>
    <g id="xtick_9">
     <g id="line2d_9">
      <g>
       <use xlink:href="#m5a23b2d823" x="285.875477" y="256.32" style="stroke: #000000; stroke-width: 0.8"/>
      </g>
     </g>
     <g id="text_9">
      <!-- 10:40 -->
      <g transform="translate(274.131552 270.204902) rotate(-330) scale(0.1 -0.1)">
       <defs>
        <path id="NotoSansCJKjp-Light-34" d="M 2189 0 
L 2547 0 
L 2547 1338 
L 3213 1338 
L 3213 1645 
L 2547 1645 
L 2547 4666 
L 2182 4666 
L 122 1562 
L 122 1338 
L 2189 1338 
L 2189 0 
z
M 2189 1645 
L 550 1645 
L 1824 3494 
C 1952 3712 2080 3930 2189 4141 
L 2221 4141 
C 2202 3930 2189 3571 2189 3366 
L 2189 1645 
z
" transform="scale(0.015625)"/>
       </defs>
       <use xlink:href="#NotoSansCJKjp-Light-31"/>
       <use xlink:href="#NotoSansCJKjp-Light-30" x="53.499985"/>
       <use xlink:href="#NotoSansCJKjp-Light-3a" x="106.999969"/>
       <use xlink:href="#NotoSansCJKjp-Light-34" x="131.999954"/>
       <use xlink:href="#NotoSansCJKjp-Light-30" x="185.499939"/>
      </g>
     </g>
    </g>
    <g id="xtick_10">
     <g id="line2d_10">
      <g>
       <use xlink:href="#m5a23b2d823" x="307.189458" y="256.32" style="stroke: #000000; stroke-width: 0.8"/>
      </g>
     </g>
     <g id="text_10">
      <!-- 10:45 -->
      <g transform="translate(295.445532 270.204902) rotate(-330) scale(0.1 -0.1)">
       <use xlink:href="#NotoSansCJKjp-Light-31"/>
       <use xlink:href="#NotoSansCJKjp-Light-30" x="53.499985"/>
       <use xlink:href="#NotoSansCJKjp-Light-3a" x="106.999969"/>
       <use xlink:href="#NotoSansCJKjp-Light-34" x="131.999954"/>
       <use xlink:href="#NotoSansCJKjp-Light-35" x="185.499939"/>
      </g>
     </g>
    </g>
    <g id="xtick_11">
     <g id="line2d_11">
      <g>
       <use xlink:href="#m5a23b2d823" x="328.503438" y="256.32" style="stroke: #000000; stroke-width: 0.8"/>
      </g>
     </g>
     <g id="text_11">
      <!-- 10:50 -->
      <g transform="translate(316.759512 270.204902) rotate(-330) scale(0.1 -0.1)">
       <use xlink:href="#NotoSansCJKjp-Light-31"/>
       <use xlink:href="#NotoSansCJKjp-Light-30" x="53.499985"/>
       <use xlink:href="#NotoSansCJKjp-Light-3a" x="106.999969"/>
       <use xlink:href="#NotoSansCJKjp-Light-35" x="131.999954"/>
       <use xlink:href="#NotoSansCJKjp-Light-30" x="185.499939"/>
      </g>
     </g>
    </g>
    <g id="xtick_12">
     <g id="line2d_12">
      <g>
       <use xlink:href="#m5a23b2d823" x="349.817418" y="256.32" style="stroke: #000000; stroke-width: 0.8"/>
      </g>
     </g>
     <g id="text_12">
      <!-- 10:55 -->
      <g transform="translate(338.073492 270.204902) rotate(-330) scale(0.1 -0.1)">
       <use xlink:href="#NotoSansCJKjp-Light-31"/>
       <use xlink:href="#NotoSansCJKjp-Light-30" x="53.499985"/>
       <use xlink:href="#NotoSansCJKjp-Light-3a" x="106.999969"/>
       <use xlink:href="#NotoSansCJKjp-Light-35" x="131.999954"/>
       <use xlink:href="#NotoSansCJKjp-Light-35" x="185.499939"/>
      </g>
     </g>
    </g>
    <g id="xtick_13">
     <g id="line2d_13">
      <g>
       <use xlink:href="#m5a23b2d823" x="371.131398" y="256.32" style="stroke: #000000; stroke-width: 0.8"/>
      </g>
     </g>
     <g id="text_13">
      <!-- 11:00 -->
      <g transform="translate(359.387473 270.204902) rotate(-330) scale(0.1 -0.1)">
       <use xlink:href="#NotoSansCJKjp-Light-31"/>
       <use xlink:href="#NotoSansCJKjp-Light-31" x="53.499985"/>
       <use xlink:href="#NotoSansCJKjp-Light-3a" x="106.999969"/>
       <use xlink:href="#NotoSansCJKjp-Light-30" x="131.999954"/>
       <use xlink:href="#NotoSansCJKjp-Light-30" x="185.499939"/>
      </g>
     </g>
    </g>
    <g id="xtick_14">
     <g id="line2d_14">
      <g>
       <use xlink:href="#m5a23b2d823" x="392.445378" y="256.32" style="stroke: #000000; stroke-width: 0.8"/>
      </g>
     </g>
     <g id="text_14">
      <!-- 11:05 -->
      <g transform="translate(380.701453 270.204902) rotate(-330) scale(0.1 -0.1)">
       <use xlink:href="#NotoSansCJKjp-Light-31"/>
       <use xlink:href="#NotoSansCJKjp-Light-31" x="53.499985"/>
       <use xlink:href="#NotoSansCJKjp-Light-3a" x="106.999969"/>
       <use xlink:href="#NotoSansCJKjp-Light-30" x="131.999954"/>
       <use xlink:href="#NotoSansCJKjp-Light-35" x="185.499939"/>
      </g>
     </g>
    </g>
    <g id="xtick_15">
     <g id="line2d_15">
      <g>
       <use xlink:href="#m5a23b2d823" x="413.759358" y="256.32" style="stroke: #000000; stroke-width: 0.8"/>
      </g>
     </g>
     <g id="text_15">
      <!-- 11:10 -->
      <g transform="translate(402.015433 270.204902) rotate(-330) scale(0.1 -0.1)">
       <use xlink:href="#NotoSansCJKjp-Light-31"/>
       <use xlink:href="#NotoSansCJKjp-Light-31" x="53.499985"/>
       <use xlink:href="#NotoSansCJKjp-Light-3a" x="106.999969"/>
       <use xlink:href="#NotoSansCJKjp-Light-31" x="131.999954"/>
       <use xlink:href="#NotoSansCJKjp-Light-30" x="185.499939"/>
      </g>
     </g>
    </g>
    <g id="xtick_16">
     <g id="line2d_16">
      <g>
       <use xlink:href="#m5a23b2d823" x="435.073338" y="256.32" style="stroke: #000000; stroke-width: 0.8"/>
      </g>
     </g>
     <g id="text_16">
      <!-- 11:15 -->
      <g transform="translate(423.329413 270.204902) rotate(-330) scale(0.1 -0.1)">
       <use xlink:href="#NotoSansCJKjp-Light-31"/>
       <use xlink:href="#NotoSansCJKjp-Light-31" x="53.499985"/>
       <use xlink:href="#NotoSansCJKjp-Light-3a" x="106.999969"/>
       <use xlink:href="#NotoSansCJKjp-Light-31" x="131.999954"/>
       <use xlink:href="#NotoSansCJKjp-Light-35" x="185.499939"/>
      </g>
     </g>
    </g>
    <g id="xtick_17">
     <g id="line2d_17">
      <g>
       <use xlink:href="#m5a23b2d823" x="456.387319" y="256.32" style="stroke: #000000; stroke-width: 0.8"/>
      </g>
     </g>
     <g id="text_17">
      <!-- 11:20 -->
      <g transform="translate(444.643393 270.204902) rotate(-330) scale(0.1 -0.1)">
       <use xlink:href="#NotoSansCJKjp-Light-31"/>
       <use xlink:href="#NotoSansCJKjp-Light-31" x="53.499985"/>
       <use xlink:href="#NotoSansCJKjp-Light-3a" x="106.999969"/>
       <use xlink:href="#NotoSansCJKjp-Light-32" x="131.999954"/>
       <use xlink:href="#NotoSansCJKjp-Light-30" x="185.499939"/>
      </g>
     </g>
    </g>
    <g id="xtick_18">
     <g id="line2d_18">
      <g>
       <use xlink:href="#m5a23b2d823" x="477.701299" y="256.32" style="stroke: #000000; stroke-width: 0.8"/>
      </g>
     </g>
     <g id="text_18">
      <!-- 11:25 -->
      <g transform="translate(465.957373 270.204902) rotate(-330) scale(0.1 -0.1)">
       <use xlink:href="#NotoSansCJKjp-Light-31"/>
       <use xlink:href="#NotoSansCJKjp-Light-31" x="53.499985"/>
       <use xlink:href="#NotoSansCJKjp-Light-3a" x="106.999969"/>
       <use xlink:href="#NotoSansCJKjp-Light-32" x="131.999954"/>
       <use xlink:href="#NotoSansCJKjp-Light-35" x="185.499939"/>
      </g>
     </g>
    </g>
    <g id="xtick_19">
     <g id="line2d_19">
      <g>
       <use xlink:href="#m5a23b2d823" x="499.015279" y="256.32" style="stroke: #000000; stroke-width: 0.8"/>
      </g>
     </g>
     <g id="text_19">
      <!-- 11:30 -->
      <g transform="translate(487.271353 270.204902) rotate(-330) scale(0.1 -0.1)">
       <use xlink:href="#NotoSansCJKjp-Light-31"/>
       <use xlink:href="#NotoSansCJKjp-Light-31" x="53.499985"/>
       <use xlink:href="#NotoSansCJKjp-Light-3a" x="106.999969"/>
       <use xlink:href="#NotoSansCJKjp-Light-33" x="131.999954"/>
       <use xlink:href="#NotoSansCJKjp-Light-30" x="185.499939"/>
      </g>
     </g>
    </g>
    <g id="xtick_20">
     <g id="line2d_20">
      <g>
       <use xlink:href="#m5a23b2d823" x="520.329259" y="256.32" style="stroke: #000000; stroke-width: 0.8"/>
      </g>
     </g>
     <g id="text_20">
      <!-- 11:35 -->
      <g transform="translate(508.585334 270.204902) rotate(-330) scale(0.1 -0.1)">
       <use xlink:href="#NotoSansCJKjp-Light-31"/>
       <use xlink:href="#NotoSansCJKjp-Light-31" x="53.499985"/>
       <use xlink:href="#NotoSansCJKjp-Light-3a" x="106.999969"/>
       <use xlink:href="#NotoSansCJKjp-Light-33" x="131.999954"/>
       <use xlink:href="#NotoSansCJKjp-Light-35" x="185.499939"/>
      </g>
     </g>
    </g>
    <g id="xtick_21">
     <g id="line2d_21">
      <g>
       <use xlink:href="#m5a23b2d823" x="541.643239" y="256.32" style="stroke: #000000; stroke-width: 0.8"/>
      </g>
     </g>
     <g id="text_21">
      <!-- 11:40 -->
      <g transform="translate(529.899314 270.204902) rotate(-330) scale(0.1 -0.1)">
       <use xlink:href="#NotoSansCJKjp-Light-31"/>
       <use xlink:href="#NotoSansCJKjp-Light-31" x="53.499985"/>
       <use xlink:href="#NotoSansCJKjp-Light-3a" x="106.999969"/>
       <use xlink:href="#NotoSansCJKjp-Light-34" x="131.999954"/>
       <use xlink:href="#NotoSansCJKjp-Light-30" x="185.499939"/>
      </g>
     </g>
    </g>
    <g id="xtick_22">
     <g id="line2d_22">
      <g>
       <use xlink:href="#m5a23b2d823" x="562.957219" y="256.32" style="stroke: #000000; stroke-width: 0.8"/>
      </g>
     </g>
     <g id="text_22">
      <!-- 11:45 -->
      <g transform="translate(551.213294 270.204902) rotate(-330) scale(0.1 -0.1)">
       <use xlink:href="#NotoSansCJKjp-Light-31"/>
       <use xlink:href="#NotoSansCJKjp-Light-31" x="53.499985"/>
       <use xlink:href="#NotoSansCJKjp-Light-3a" x="106.999969"/>
       <use xlink:href="#NotoSansCJKjp-Light-34" x="131.999954"/>
       <use xlink:href="#NotoSansCJKjp-Light-35" x="185.499939"/>
      </g>
     </g>
    </g>
    <g id="xtick_23">
     <g id="line2d_23">
      <g>
       <use xlink:href="#m5a23b2d823" x="584.271199" y="256.32" style="stroke: #000000; stroke-width: 0.8"/>
      </g>
     </g>
     <g id="text_23">
      <!-- 11:50 -->
      <g transform="translate(572.527274 270.204902) rotate(-330) scale(0.1 -0.1)">
       <use xlink:href="#NotoSansCJKjp-Light-31"/>
       <use xlink:href="#NotoSansCJKjp-Light-31" x="53.499985"/>
       <use xlink:href="#NotoSansCJKjp-Light-3a" x="106.999969"/>
       <use xlink:href="#NotoSansCJKjp-Light-35" x="131.999954"/>
       <use xlink:href="#NotoSansCJKjp-Light-30" x="185.499939"/>
      </g>
     </g>
    </g>
    <g id="xtick_24">
     <g id="line2d_24">
      <g>
       <use xlink:href="#m5a23b2d823" x="605.58518" y="256.32" style="stroke: #000000; stroke-width: 0.8"/>
      </g>
     </g>
     <g id="text_24">
      <!-- 11:55 -->
      <g transform="translate(593.841254 270.204902) rotate(-330) scale(0.1 -0.1)">
       <use xlink:href="#NotoSansCJKjp-Light-31"/>
       <use xlink:href="#NotoSansCJKjp-Light-31" x="53.499985"/>
       <use xlink:href="#NotoSansCJKjp-Light-3a" x="106.999969"/>
       <use xlink:href="#NotoSansCJKjp-Light-35" x="131.999954"/>
       <use xlink:href="#NotoSansCJKjp-Light-35" x="185.499939"/>
      </g>
     </g>
    </g>
    <g id="text_25">
     <!-- time -->
     <g transform="translate(357.703906 295.80609) scale(0.1 -0.1)">
      <defs>
       <path id="DejaVuSans-74" d="M 1172 4494 
L 1172 3500 
L 2356 3500 
L 2356 3053 
L 1172 3053 
L 1172 1153 
Q 1172 725 1289 603 
Q 1406 481 1766 481 
L 2356 481 
L 2356 0 
L 1766 0 
Q 1100 0 847 248 
Q 594 497 594 1153 
L 594 3053 
L 172 3053 
L 172 3500 
L 594 3500 
L 594 4494 
L 1172 4494 
z
" transform="scale(0.015625)"/>
       <path id="DejaVuSans-69" d="M 603 3500 
L 1178 3500 
L 1178 0 
L 603 0 
L 603 3500 
z
M 603 4863 
L 1178 4863 
L 1178 4134 
L 603 4134 
L 603 4863 
z
" transform="scale(0.015625)"/>
       <path id="DejaVuSans-6d" d="M 3328 2828 
Q 3544 3216 3844 3400 
Q 4144 3584 4550 3584 
Q 5097 3584 5394 3201 
Q 5691 2819 5691 2113 
L 5691 0 
L 5113 0 
L 5113 2094 
Q 5113 2597 4934 2840 
Q 4756 3084 4391 3084 
Q 3944 3084 3684 2787 
Q 3425 2491 3425 1978 
L 3425 0 
L 2847 0 
L 2847 2094 
Q 2847 2600 2669 2842 
Q 2491 3084 2119 3084 
Q 1678 3084 1418 2786 
Q 1159 2488 1159 1978 
L 1159 0 
L 581 0 
L 581 3500 
L 1159 3500 
L 1159 2956 
Q 1356 3278 1631 3431 
Q 1906 3584 2284 3584 
Q 2666 3584 2933 3390 
Q 3200 3197 3328 2828 
z
" transform="scale(0.015625)"/>
       <path id="DejaVuSans-65" d="M 3597 1894 
L 3597 1613 
L 953 1613 
Q 991 1019 1311 708 
Q 1631 397 2203 397 
Q 2534 397 2845 478 
Q 3156 559 3463 722 
L 3463 178 
Q 3153 47 2828 -22 
Q 2503 -91 2169 -91 
Q 1331 -91 842 396 
Q 353 884 353 1716 
Q 353 2575 817 3079 
Q 1281 3584 2069 3584 
Q 2775 3584 3186 3129 
Q 3597 2675 3597 1894 
z
M 3022 2063 
Q 3016 2534 2758 2815 
Q 2500 3097 2075 3097 
Q 1594 3097 1305 2825 
Q 1016 2553 972 2059 
L 3022 2063 
z
" transform="scale(0.015625)"/>
      </defs>
      <use xlink:href="#DejaVuSans-74"/>
      <use xlink:href="#DejaVuSans-69" x="39.208984"/>
      <use xlink:href="#DejaVuSans-6d" x="66.992188"/>
      <use xlink:href="#DejaVuSans-65" x="164.404297"/>
     </g>
    </g>
   </g>
   <g id="matplotlib.axis_2">
    <g id="ytick_1">
     <g id="line2d_25">
      <defs>
       <path id="m74b1c87bfa" d="M 0 0 
L -3.5 0 
" style="stroke: #000000; stroke-width: 0.8"/>
      </defs>
      <g>
       <use xlink:href="#m74b1c87bfa" x="90" y="246.24" style="stroke: #000000; stroke-width: 0.8"/>
      </g>
     </g>
     <g id="text_26">
      <!-- 20 -->
      <g transform="translate(70.275 250.039219) scale(0.1 -0.1)">
       <defs>
        <path id="DejaVuSans-32" d="M 1228 531 
L 3431 531 
L 3431 0 
L 469 0 
L 469 531 
Q 828 903 1448 1529 
Q 2069 2156 2228 2338 
Q 2531 2678 2651 2914 
Q 2772 3150 2772 3378 
Q 2772 3750 2511 3984 
Q 2250 4219 1831 4219 
Q 1534 4219 1204 4116 
Q 875 4013 500 3803 
L 500 4441 
Q 881 4594 1212 4672 
Q 1544 4750 1819 4750 
Q 2544 4750 2975 4387 
Q 3406 4025 3406 3419 
Q 3406 3131 3298 2873 
Q 3191 2616 2906 2266 
Q 2828 2175 2409 1742 
Q 1991 1309 1228 531 
z
" transform="scale(0.015625)"/>
        <path id="DejaVuSans-30" d="M 2034 4250 
Q 1547 4250 1301 3770 
Q 1056 3291 1056 2328 
Q 1056 1369 1301 889 
Q 1547 409 2034 409 
Q 2525 409 2770 889 
Q 3016 1369 3016 2328 
Q 3016 3291 2770 3770 
Q 2525 4250 2034 4250 
z
M 2034 4750 
Q 2819 4750 3233 4129 
Q 3647 3509 3647 2328 
Q 3647 1150 3233 529 
Q 2819 -91 2034 -91 
Q 1250 -91 836 529 
Q 422 1150 422 2328 
Q 422 3509 836 4129 
Q 1250 4750 2034 4750 
z
" transform="scale(0.015625)"/>
       </defs>
       <use xlink:href="#DejaVuSans-32"/>
       <use xlink:href="#DejaVuSans-30" x="63.623047"/>
      </g>
     </g>
    </g>
    <g id="ytick_2">
     <g id="line2d_26">
      <g>
       <use xlink:href="#m74b1c87bfa" x="90" y="219.36" style="stroke: #000000; stroke-width: 0.8"/>
      </g>
     </g>
     <g id="text_27">
      <!-- 22 -->
      <g transform="translate(70.275 223.159219) scale(0.1 -0.1)">
       <use xlink:href="#DejaVuSans-32"/>
       <use xlink:href="#DejaVuSans-32" x="63.623047"/>
      </g>
     </g>
    </g>
    <g id="ytick_3">
     <g id="line2d_27">
      <g>
       <use xlink:href="#m74b1c87bfa" x="90" y="192.48" style="stroke: #000000; stroke-width: 0.8"/>
      </g>
     </g>
     <g id="text_28">
      <!-- 24 -->
      <g transform="translate(70.275 196.279219) scale(0.1 -0.1)">
       <defs>
        <path id="DejaVuSans-34" d="M 2419 4116 
L 825 1625 
L 2419 1625 
L 2419 4116 
z
M 2253 4666 
L 3047 4666 
L 3047 1625 
L 3713 1625 
L 3713 1100 
L 3047 1100 
L 3047 0 
L 2419 0 
L 2419 1100 
L 313 1100 
L 313 1709 
L 2253 4666 
z
" transform="scale(0.015625)"/>
       </defs>
       <use xlink:href="#DejaVuSans-32"/>
       <use xlink:href="#DejaVuSans-34" x="63.623047"/>
      </g>
     </g>
    </g>
    <g id="ytick_4">
     <g id="line2d_28">
      <g>
       <use xlink:href="#m74b1c87bfa" x="90" y="165.6" style="stroke: #000000; stroke-width: 0.8"/>
      </g>
     </g>
     <g id="text_29">
      <!-- 26 -->
      <g transform="translate(70.275 169.399219) scale(0.1 -0.1)">
       <defs>
        <path id="DejaVuSans-36" d="M 2113 2584 
Q 1688 2584 1439 2293 
Q 1191 2003 1191 1497 
Q 1191 994 1439 701 
Q 1688 409 2113 409 
Q 2538 409 2786 701 
Q 3034 994 3034 1497 
Q 3034 2003 2786 2293 
Q 2538 2584 2113 2584 
z
M 3366 4563 
L 3366 3988 
Q 3128 4100 2886 4159 
Q 2644 4219 2406 4219 
Q 1781 4219 1451 3797 
Q 1122 3375 1075 2522 
Q 1259 2794 1537 2939 
Q 1816 3084 2150 3084 
Q 2853 3084 3261 2657 
Q 3669 2231 3669 1497 
Q 3669 778 3244 343 
Q 2819 -91 2113 -91 
Q 1303 -91 875 529 
Q 447 1150 447 2328 
Q 447 3434 972 4092 
Q 1497 4750 2381 4750 
Q 2619 4750 2861 4703 
Q 3103 4656 3366 4563 
z
" transform="scale(0.015625)"/>
       </defs>
       <use xlink:href="#DejaVuSans-32"/>
       <use xlink:href="#DejaVuSans-36" x="63.623047"/>
      </g>
     </g>
    </g>
    <g id="ytick_5">
     <g id="line2d_29">
      <g>
       <use xlink:href="#m74b1c87bfa" x="90" y="138.72" style="stroke: #000000; stroke-width: 0.8"/>
      </g>
     </g>
     <g id="text_30">
      <!-- 28 -->
      <g transform="translate(70.275 142.519219) scale(0.1 -0.1)">
       <defs>
        <path id="DejaVuSans-38" d="M 2034 2216 
Q 1584 2216 1326 1975 
Q 1069 1734 1069 1313 
Q 1069 891 1326 650 
Q 1584 409 2034 409 
Q 2484 409 2743 651 
Q 3003 894 3003 1313 
Q 3003 1734 2745 1975 
Q 2488 2216 2034 2216 
z
M 1403 2484 
Q 997 2584 770 2862 
Q 544 3141 544 3541 
Q 544 4100 942 4425 
Q 1341 4750 2034 4750 
Q 2731 4750 3128 4425 
Q 3525 4100 3525 3541 
Q 3525 3141 3298 2862 
Q 3072 2584 2669 2484 
Q 3125 2378 3379 2068 
Q 3634 1759 3634 1313 
Q 3634 634 3220 271 
Q 2806 -91 2034 -91 
Q 1263 -91 848 271 
Q 434 634 434 1313 
Q 434 1759 690 2068 
Q 947 2378 1403 2484 
z
M 1172 3481 
Q 1172 3119 1398 2916 
Q 1625 2713 2034 2713 
Q 2441 2713 2670 2916 
Q 2900 3119 2900 3481 
Q 2900 3844 2670 4047 
Q 2441 4250 2034 4250 
Q 1625 4250 1398 4047 
Q 1172 3844 1172 3481 
z
" transform="scale(0.015625)"/>
       </defs>
       <use xlink:href="#DejaVuSans-32"/>
       <use xlink:href="#DejaVuSans-38" x="63.623047"/>
      </g>
     </g>
    </g>
    <g id="ytick_6">
     <g id="line2d_30">
      <g>
       <use xlink:href="#m74b1c87bfa" x="90" y="111.84" style="stroke: #000000; stroke-width: 0.8"/>
      </g>
     </g>
     <g id="text_31">
      <!-- 30 -->
      <g transform="translate(70.275 115.639219) scale(0.1 -0.1)">
       <defs>
        <path id="DejaVuSans-33" d="M 2597 2516 
Q 3050 2419 3304 2112 
Q 3559 1806 3559 1356 
Q 3559 666 3084 287 
Q 2609 -91 1734 -91 
Q 1441 -91 1130 -33 
Q 819 25 488 141 
L 488 750 
Q 750 597 1062 519 
Q 1375 441 1716 441 
Q 2309 441 2620 675 
Q 2931 909 2931 1356 
Q 2931 1769 2642 2001 
Q 2353 2234 1838 2234 
L 1294 2234 
L 1294 2753 
L 1863 2753 
Q 2328 2753 2575 2939 
Q 2822 3125 2822 3475 
Q 2822 3834 2567 4026 
Q 2313 4219 1838 4219 
Q 1578 4219 1281 4162 
Q 984 4106 628 3988 
L 628 4550 
Q 988 4650 1302 4700 
Q 1616 4750 1894 4750 
Q 2613 4750 3031 4423 
Q 3450 4097 3450 3541 
Q 3450 3153 3228 2886 
Q 3006 2619 2597 2516 
z
" transform="scale(0.015625)"/>
       </defs>
       <use xlink:href="#DejaVuSans-33"/>
       <use xlink:href="#DejaVuSans-30" x="63.623047"/>
      </g>
     </g>
    </g>
    <g id="ytick_7">
     <g id="line2d_31">
      <g>
       <use xlink:href="#m74b1c87bfa" x="90" y="84.96" style="stroke: #000000; stroke-width: 0.8"/>
      </g>
     </g>
     <g id="text_32">
      <!-- 32 -->
      <g transform="translate(70.275 88.759219) scale(0.1 -0.1)">
       <use xlink:href="#DejaVuSans-33"/>
       <use xlink:href="#DejaVuSans-32" x="63.623047"/>
      </g>
     </g>
    </g>
    <g id="ytick_8">
     <g id="line2d_32">
      <g>
       <use xlink:href="#m74b1c87bfa" x="90" y="58.08" style="stroke: #000000; stroke-width: 0.8"/>
      </g>
     </g>
     <g id="text_33">
      <!-- 34 -->
      <g transform="translate(70.275 61.879219) scale(0.1 -0.1)">
       <use xlink:href="#DejaVuSans-33"/>
       <use xlink:href="#DejaVuSans-34" x="63.623047"/>
      </g>
     </g>
    </g>
    <g id="text_34">
     <!-- temperature ℃ -->
     <g transform="translate(64.195312 184.070469) rotate(-90) scale(0.1 -0.1)">
      <defs>
       <path id="DejaVuSans-70" d="M 1159 525 
L 1159 -1331 
L 581 -1331 
L 581 3500 
L 1159 3500 
L 1159 2969 
Q 1341 3281 1617 3432 
Q 1894 3584 2278 3584 
Q 2916 3584 3314 3078 
Q 3713 2572 3713 1747 
Q 3713 922 3314 415 
Q 2916 -91 2278 -91 
Q 1894 -91 1617 61 
Q 1341 213 1159 525 
z
M 3116 1747 
Q 3116 2381 2855 2742 
Q 2594 3103 2138 3103 
Q 1681 3103 1420 2742 
Q 1159 2381 1159 1747 
Q 1159 1113 1420 752 
Q 1681 391 2138 391 
Q 2594 391 2855 752 
Q 3116 1113 3116 1747 
z
" transform="scale(0.015625)"/>
       <path id="DejaVuSans-72" d="M 2631 2963 
Q 2534 3019 2420 3045 
Q 2306 3072 2169 3072 
Q 1681 3072 1420 2755 
Q 1159 2438 1159 1844 
L 1159 0 
L 581 0 
L 581 3500 
L 1159 3500 
L 1159 2956 
Q 1341 3275 1631 3429 
Q 1922 3584 2338 3584 
Q 2397 3584 2469 3576 
Q 2541 3569 2628 3553 
L 2631 2963 
z
" transform="scale(0.015625)"/>
       <path id="DejaVuSans-61" d="M 2194 1759 
Q 1497 1759 1228 1600 
Q 959 1441 959 1056 
Q 959 750 1161 570 
Q 1363 391 1709 391 
Q 2188 391 2477 730 
Q 2766 1069 2766 1631 
L 2766 1759 
L 2194 1759 
z
M 3341 1997 
L 3341 0 
L 2766 0 
L 2766 531 
Q 2569 213 2275 61 
Q 1981 -91 1556 -91 
Q 1019 -91 701 211 
Q 384 513 384 1019 
Q 384 1609 779 1909 
Q 1175 2209 1959 2209 
L 2766 2209 
L 2766 2266 
Q 2766 2663 2505 2880 
Q 2244 3097 1772 3097 
Q 1472 3097 1187 3025 
Q 903 2953 641 2809 
L 641 3341 
Q 956 3463 1253 3523 
Q 1550 3584 1831 3584 
Q 2591 3584 2966 3190 
Q 3341 2797 3341 1997 
z
" transform="scale(0.015625)"/>
       <path id="DejaVuSans-75" d="M 544 1381 
L 544 3500 
L 1119 3500 
L 1119 1403 
Q 1119 906 1312 657 
Q 1506 409 1894 409 
Q 2359 409 2629 706 
Q 2900 1003 2900 1516 
L 2900 3500 
L 3475 3500 
L 3475 0 
L 2900 0 
L 2900 538 
Q 2691 219 2414 64 
Q 2138 -91 1772 -91 
Q 1169 -91 856 284 
Q 544 659 544 1381 
z
M 1991 3584 
L 1991 3584 
z
" transform="scale(0.015625)"/>
       <path id="DejaVuSans-20" transform="scale(0.015625)"/>
       <path id="DejaVuSans-2103" d="M 1600 4347 
Q 1350 4347 1178 4173 
Q 1006 4000 1006 3750 
Q 1006 3503 1178 3333 
Q 1350 3163 1600 3163 
Q 1850 3163 2022 3333 
Q 2194 3503 2194 3750 
Q 2194 3997 2020 4172 
Q 1847 4347 1600 4347 
z
M 1600 4750 
Q 1800 4750 1984 4673 
Q 2169 4597 2303 4453 
Q 2447 4313 2519 4134 
Q 2591 3956 2591 3750 
Q 2591 3338 2302 3052 
Q 2013 2766 1594 2766 
Q 1172 2766 890 3047 
Q 609 3328 609 3750 
Q 609 4169 896 4459 
Q 1184 4750 1600 4750 
z
M 6738 4306 
L 6738 3641 
Q 6419 3938 6058 4084 
Q 5697 4231 5291 4231 
Q 4491 4231 4066 3742 
Q 3641 3253 3641 2328 
Q 3641 1406 4066 917 
Q 4491 428 5291 428 
Q 5697 428 6058 575 
Q 6419 722 6738 1019 
L 6738 359 
Q 6407 134 6036 21 
Q 5666 -91 5254 -91 
Q 4194 -91 3584 557 
Q 2975 1206 2975 2328 
Q 2975 3453 3584 4101 
Q 4194 4750 5254 4750 
Q 5672 4750 6042 4639 
Q 6413 4528 6738 4306 
z
" transform="scale(0.015625)"/>
      </defs>
      <use xlink:href="#DejaVuSans-74"/>
      <use xlink:href="#DejaVuSans-65" x="39.208984"/>
      <use xlink:href="#DejaVuSans-6d" x="100.732422"/>
      <use xlink:href="#DejaVuSans-70" x="198.144531"/>
      <use xlink:href="#DejaVuSans-65" x="261.621094"/>
      <use xlink:href="#DejaVuSans-72" x="323.144531"/>
      <use xlink:href="#DejaVuSans-61" x="364.257812"/>
      <use xlink:href="#DejaVuSans-74" x="425.537109"/>
      <use xlink:href="#DejaVuSans-75" x="464.746094"/>
      <use xlink:href="#DejaVuSans-72" x="528.125"/>
      <use xlink:href="#DejaVuSans-65" x="566.988281"/>
      <use xlink:href="#DejaVuSans-20" x="628.511719"/>
      <use xlink:href="#DejaVuSans-2103" x="660.298828"/>
     </g>
    </g>
   </g>
   <g id="line2d_33">
    <path d="M 115.363636 219.36 
L 119.626432 58.08 
L 123.889228 58.08 
L 128.152024 71.52 
L 132.41482 84.96 
L 136.677617 98.4 
L 140.940413 111.84 
L 145.203209 44.64 
L 149.466005 111.84 
L 153.728801 125.28 
L 157.991597 111.84 
L 162.254393 232.8 
L 166.517189 44.64 
L 170.779985 125.28 
L 175.042781 232.8 
L 179.305577 205.92 
L 183.568373 205.92 
L 187.831169 44.64 
L 192.093965 232.8 
L 196.356761 192.48 
L 200.619557 58.08 
L 204.882353 84.96 
L 209.145149 246.24 
L 213.407945 152.16 
L 217.670741 232.8 
L 221.933537 125.28 
L 226.196333 138.72 
L 230.459129 125.28 
L 234.721925 84.96 
L 238.984721 84.96 
L 243.247517 179.04 
L 247.510313 44.64 
L 251.773109 232.8 
L 256.035905 125.28 
L 260.298701 98.4 
L 264.561497 111.84 
L 268.824293 232.8 
L 273.087089 205.92 
L 277.349885 232.8 
L 281.612681 192.48 
L 285.875477 192.48 
L 290.138273 246.24 
L 294.40107 165.6 
L 298.663866 165.6 
L 302.926662 152.16 
L 307.189458 165.6 
L 311.452254 44.64 
L 315.71505 192.48 
L 319.977846 84.96 
L 324.240642 138.72 
L 328.503438 98.4 
L 332.766234 179.04 
L 337.02903 98.4 
L 341.291826 152.16 
L 345.554622 152.16 
L 349.817418 179.04 
L 354.080214 232.8 
L 358.34301 179.04 
L 362.605806 58.08 
L 366.868602 219.36 
L 371.131398 205.92 
L 375.394194 44.64 
L 379.65699 205.92 
L 383.919786 84.96 
L 388.182582 232.8 
L 392.445378 152.16 
L 396.708174 84.96 
L 400.97097 84.96 
L 405.233766 98.4 
L 409.496562 138.72 
L 413.759358 219.36 
L 418.022154 152.16 
L 422.28495 219.36 
L 426.547746 125.28 
L 430.810542 219.36 
L 435.073338 179.04 
L 439.336134 58.08 
L 443.59893 219.36 
L 447.861727 192.48 
L 452.124523 44.64 
L 456.387319 205.92 
L 460.650115 152.16 
L 464.912911 84.96 
L 469.175707 246.24 
L 473.438503 111.84 
L 477.701299 111.84 
L 481.964095 179.04 
L 486.226891 165.6 
L 490.489687 205.92 
L 494.752483 125.28 
L 499.015279 152.16 
L 503.278075 179.04 
L 507.540871 44.64 
L 511.803667 165.6 
L 516.066463 232.8 
L 520.329259 232.8 
L 524.592055 71.52 
L 528.854851 205.92 
L 533.117647 246.24 
L 537.380443 165.6 
L 541.643239 192.48 
L 545.906035 98.4 
L 550.168831 44.64 
L 554.431627 71.52 
L 558.694423 219.36 
L 562.957219 246.24 
L 567.220015 232.8 
L 571.482811 179.04 
L 575.745607 179.04 
L 580.008403 205.92 
L 584.271199 232.8 
L 588.533995 111.84 
L 592.796791 98.4 
L 597.059587 219.36 
L 601.322383 125.28 
L 605.58518 246.24 
L 609.847976 58.08 
L 614.110772 246.24 
L 618.373568 192.48 
L 622.636364 205.92 
" clip-path="url(#p449d5eda8e)" style="fill: none; stroke: #1f77b4; stroke-width: 1.5; stroke-linecap: square"/>
   </g>
   <g id="patch_3">
    <path d="M 90 256.32 
L 90 34.56 
" style="fill: none; stroke: #000000; stroke-width: 0.8; stroke-linejoin: miter; stroke-linecap: square"/>
   </g>
   <g id="patch_4">
    <path d="M 648 256.32 
L 648 34.56 
" style="fill: none; stroke: #000000; stroke-width: 0.8; stroke-linejoin: miter; stroke-linecap: square"/>
   </g>
   <g id="patch_5">
    <path d="M 90 256.32 
L 648 256.32 
" style="fill: none; stroke: #000000; stroke-width: 0.8; stroke-linejoin: miter; stroke-linecap: square"/>
   </g>
   <g id="patch_6">
    <path d="M 90 34.56 
L 648 34.56 
" style="fill: none; stroke: #000000; stroke-width: 0.8; stroke-linejoin: miter; stroke-linecap: square"/>
   </g>
   <g id="text_35">
    <!-- 10:00 - 12:00 Temperature change -->
    <g transform="translate(264.54 28.56) scale(0.12 -0.12)">
     <defs>
      <path id="DejaVuSans-31" d="M 794 531 
L 1825 531 
L 1825 4091 
L 703 3866 
L 703 4441 
L 1819 4666 
L 2450 4666 
L 2450 531 
L 3481 531 
L 3481 0 
L 794 0 
L 794 531 
z
" transform="scale(0.015625)"/>
      <path id="DejaVuSans-3a" d="M 750 794 
L 1409 794 
L 1409 0 
L 750 0 
L 750 794 
z
M 750 3309 
L 1409 3309 
L 1409 2516 
L 750 2516 
L 750 3309 
z
" transform="scale(0.015625)"/>
      <path id="DejaVuSans-2d" d="M 313 2009 
L 1997 2009 
L 1997 1497 
L 313 1497 
L 313 2009 
z
" transform="scale(0.015625)"/>
      <path id="DejaVuSans-54" d="M -19 4666 
L 3928 4666 
L 3928 4134 
L 2272 4134 
L 2272 0 
L 1638 0 
L 1638 4134 
L -19 4134 
L -19 4666 
z
" transform="scale(0.015625)"/>
      <path id="DejaVuSans-63" d="M 3122 3366 
L 3122 2828 
Q 2878 2963 2633 3030 
Q 2388 3097 2138 3097 
Q 1578 3097 1268 2742 
Q 959 2388 959 1747 
Q 959 1106 1268 751 
Q 1578 397 2138 397 
Q 2388 397 2633 464 
Q 2878 531 3122 666 
L 3122 134 
Q 2881 22 2623 -34 
Q 2366 -91 2075 -91 
Q 1284 -91 818 406 
Q 353 903 353 1747 
Q 353 2603 823 3093 
Q 1294 3584 2113 3584 
Q 2378 3584 2631 3529 
Q 2884 3475 3122 3366 
z
" transform="scale(0.015625)"/>
      <path id="DejaVuSans-68" d="M 3513 2113 
L 3513 0 
L 2938 0 
L 2938 2094 
Q 2938 2591 2744 2837 
Q 2550 3084 2163 3084 
Q 1697 3084 1428 2787 
Q 1159 2491 1159 1978 
L 1159 0 
L 581 0 
L 581 4863 
L 1159 4863 
L 1159 2956 
Q 1366 3272 1645 3428 
Q 1925 3584 2291 3584 
Q 2894 3584 3203 3211 
Q 3513 2838 3513 2113 
z
" transform="scale(0.015625)"/>
      <path id="DejaVuSans-6e" d="M 3513 2113 
L 3513 0 
L 2938 0 
L 2938 2094 
Q 2938 2591 2744 2837 
Q 2550 3084 2163 3084 
Q 1697 3084 1428 2787 
Q 1159 2491 1159 1978 
L 1159 0 
L 581 0 
L 581 3500 
L 1159 3500 
L 1159 2956 
Q 1366 3272 1645 3428 
Q 1925 3584 2291 3584 
Q 2894 3584 3203 3211 
Q 3513 2838 3513 2113 
z
" transform="scale(0.015625)"/>
      <path id="DejaVuSans-67" d="M 2906 1791 
Q 2906 2416 2648 2759 
Q 2391 3103 1925 3103 
Q 1463 3103 1205 2759 
Q 947 2416 947 1791 
Q 947 1169 1205 825 
Q 1463 481 1925 481 
Q 2391 481 2648 825 
Q 2906 1169 2906 1791 
z
M 3481 434 
Q 3481 -459 3084 -895 
Q 2688 -1331 1869 -1331 
Q 1566 -1331 1297 -1286 
Q 1028 -1241 775 -1147 
L 775 -588 
Q 1028 -725 1275 -790 
Q 1522 -856 1778 -856 
Q 2344 -856 2625 -561 
Q 2906 -266 2906 331 
L 2906 616 
Q 2728 306 2450 153 
Q 2172 0 1784 0 
Q 1141 0 747 490 
Q 353 981 353 1791 
Q 353 2603 747 3093 
Q 1141 3584 1784 3584 
Q 2172 3584 2450 3431 
Q 2728 3278 2906 2969 
L 2906 3500 
L 3481 3500 
L 3481 434 
z
" transform="scale(0.015625)"/>
     </defs>
     <use xlink:href="#DejaVuSans-31"/>
     <use xlink:href="#DejaVuSans-30" x="63.623047"/>
     <use xlink:href="#DejaVuSans-3a" x="127.246094"/>
     <use xlink:href="#DejaVuSans-30" x="160.9375"/>
     <use xlink:href="#DejaVuSans-30" x="224.560547"/>
     <use xlink:href="#DejaVuSans-20" x="288.183594"/>
     <use xlink:href="#DejaVuSans-2d" x="319.970703"/>
     <use xlink:href="#DejaVuSans-20" x="356.054688"/>
     <use xlink:href="#DejaVuSans-31" x="387.841797"/>
     <use xlink:href="#DejaVuSans-32" x="451.464844"/>
     <use xlink:href="#DejaVuSans-3a" x="515.087891"/>
     <use xlink:href="#DejaVuSans-30" x="548.779297"/>
     <use xlink:href="#DejaVuSans-30" x="612.402344"/>
     <use xlink:href="#DejaVuSans-20" x="676.025391"/>
     <use xlink:href="#DejaVuSans-54" x="707.8125"/>
     <use xlink:href="#DejaVuSans-65" x="751.896484"/>
     <use xlink:href="#DejaVuSans-6d" x="813.419922"/>
     <use xlink:href="#DejaVuSans-70" x="910.832031"/>
     <use xlink:href="#DejaVuSans-65" x="974.308594"/>
     <use xlink:href="#DejaVuSans-72" x="1035.832031"/>
     <use xlink:href="#DejaVuSans-61" x="1076.945312"/>
     <use xlink:href="#DejaVuSans-74" x="1138.224609"/>
     <use xlink:href="#DejaVuSans-75" x="1177.433594"/>
     <use xlink:href="#DejaVuSans-72" x="1240.8125"/>
     <use xlink:href="#DejaVuSans-65" x="1279.675781"/>
     <use xlink:href="#DejaVuSans-20" x="1341.199219"/>
     <use xlink:href="#DejaVuSans-63" x="1372.986328"/>
     <use xlink:href="#DejaVuSans-68" x="1427.966797"/>
     <use xlink:href="#DejaVuSans-61" x="1491.345703"/>
     <use xlink:href="#DejaVuSans-6e" x="1552.625"/>
     <use xlink:href="#DejaVuSans-67" x="1616.003906"/>
     <use xlink:href="#DejaVuSans-65" x="1679.480469"/>
    </g>
   </g>
  </g>
 </g>
 <defs>
  <clipPath id="p449d5eda8e">
   <rect x="90" y="34.56" width="558" height="221.76"/>
  </clipPath>
 </defs>
</svg>
